<?xml version="1.0" standalone="no"?>
<!DOCTYPE svg PUBLIC "-//W3C//DTD SVG 20010904//EN"
 "http://www.w3.org/TR/2001/REC-SVG-20010904/DTD/svg10.dtd">
<svg version="1.0" xmlns="http://www.w3.org/2000/svg"
 width="1280.000000pt" height="1027.000000pt" viewBox="0 0 1280.000000 1027.000000"
 preserveAspectRatio="xMidYMid meet">
<g transform="translate(0.000000,1027.000000) scale(0.100000,-0.100000)"
fill="#000000" stroke="none">
<path d="M8576 9491 c-9 -10 -30 -21 -45 -24 -18 -4 -37 -20 -54 -46 -22 -33
-33 -41 -58 -41 -17 0 -43 7 -58 16 -24 14 -37 15 -99 4 -51 -8 -73 -16 -77
-29 -3 -9 -7 -57 -10 -105 -5 -102 -11 -112 -88 -145 -28 -13 -79 -36 -112
-52 -64 -30 -99 -36 -110 -18 -4 6 -14 7 -24 4 -29 -12 -135 -33 -206 -40 -38
-4 -83 -15 -100 -25 -28 -17 -130 -38 -214 -45 -20 -2 -75 -7 -122 -10 -74 -7
-93 -5 -141 13 -31 12 -58 18 -61 15 -13 -12 -161 -10 -186 3 -14 8 -32 14
-40 14 -27 0 -157 70 -193 104 -47 43 -75 52 -213 70 -61 8 -124 22 -140 30
-37 20 -55 20 -125 1 -41 -10 -63 -24 -88 -52 l-33 -38 -117 -1 -117 -2 -119
-61 c-66 -34 -126 -61 -133 -61 -8 0 -31 -11 -51 -25 -20 -14 -41 -25 -46 -25
-5 0 -44 -36 -87 -81 l-78 -81 -95 1 c-118 0 -132 -9 -121 -78 19 -130 28
-109 -86 -213 -14 -13 -19 -32 -19 -69 0 -38 -6 -58 -25 -83 -26 -35 -32 -75
-14 -93 12 -12 1 -39 -26 -66 -16 -17 -61 -112 -67 -142 -2 -11 -13 -21 -25
-23 -12 -2 -27 -9 -33 -17 -14 -17 -3 -85 15 -92 8 -2 26 -22 41 -44 23 -33
26 -46 21 -84 -6 -40 -3 -49 29 -90 19 -26 39 -57 44 -70 9 -24 77 -83 125
-107 17 -9 87 -43 157 -77 70 -34 148 -80 174 -102 70 -60 119 -82 190 -83 33
-1 67 -6 75 -12 24 -19 220 -100 286 -118 77 -21 173 -63 173 -75 0 -5 38 -35
84 -66 83 -57 106 -84 106 -130 0 -13 4 -26 9 -30 5 -3 15 -22 21 -43 7 -20
22 -53 34 -72 11 -19 26 -51 32 -72 15 -48 62 -124 99 -160 77 -74 174 -156
210 -177 22 -13 76 -48 120 -76 114 -74 153 -85 309 -85 116 0 226 -14 277
-34 8 -4 23 -23 32 -44 33 -73 54 -97 110 -126 32 -15 57 -32 57 -36 0 -5 18
-28 40 -51 22 -24 45 -60 50 -79 5 -20 23 -49 40 -65 25 -24 37 -29 74 -26 30
2 62 -6 105 -25 55 -25 62 -31 72 -67 l10 -39 45 5 c30 3 58 15 82 34 44 35
95 63 116 63 8 0 31 -14 51 -31 31 -28 39 -30 63 -21 51 20 92 24 127 12 27
-9 39 -9 50 0 8 7 27 9 48 5 21 -4 44 -2 58 5 12 7 47 12 78 12 40 0 62 5 79
19 25 20 77 26 86 10 11 -17 67 -21 97 -6 16 9 52 20 81 25 42 8 56 7 76 -6
13 -8 25 -14 26 -12 1 2 6 16 11 33 14 42 69 53 126 23 34 -17 44 -19 63 -8
18 9 37 9 77 1 30 -5 87 -9 127 -8 63 2 76 5 90 25 28 37 74 62 114 62 20 0
49 5 63 12 19 9 31 9 44 1 28 -17 145 -27 170 -14 11 7 56 14 100 18 70 5 83
3 114 -16 19 -12 42 -19 50 -15 9 3 24 -4 36 -18 20 -21 28 -22 129 -20 105 3
107 4 139 35 60 61 91 79 121 72 23 -5 33 0 55 25 20 22 36 30 62 30 32 0 56
12 143 72 18 13 42 41 54 63 36 70 57 92 111 123 57 32 145 53 252 59 45 3 78
11 95 23 14 10 42 25 62 33 20 8 41 25 48 36 6 12 36 35 66 53 l56 31 -5 66
c-3 36 -8 78 -12 93 -6 24 -4 29 19 38 14 5 26 16 26 24 0 14 53 84 100 132
11 12 20 33 20 48 0 15 13 41 34 63 18 21 45 57 59 80 15 23 53 69 87 103 65
66 86 101 84 140 0 14 -1 44 -2 67 -2 47 -14 60 -128 152 -58 47 -114 128
-114 166 0 27 -39 93 -59 100 -33 10 -56 45 -57 86 0 33 -8 47 -46 87 -25 26
-49 57 -53 70 -3 12 -21 30 -40 40 -18 9 -51 40 -73 67 -75 94 -99 115 -131
115 -23 0 -38 10 -68 45 -28 33 -48 47 -71 50 -39 5 -52 12 -52 29 0 7 -10 21
-21 32 -12 10 -32 43 -45 73 -28 62 -44 77 -96 85 -25 4 -43 15 -55 32 -9 15
-29 32 -43 38 -46 21 -99 61 -109 84 -6 12 -31 31 -56 42 -25 11 -45 24 -45
29 0 6 -13 24 -30 41 -16 17 -30 38 -30 48 -1 21 -72 72 -101 72 -11 0 -37 9
-59 20 -22 11 -46 20 -54 20 -8 0 -21 8 -28 18 -23 31 -72 56 -115 58 -24 1
-54 9 -67 18 -14 9 -33 16 -43 16 -10 0 -40 12 -68 25 -27 14 -55 25 -62 25
-20 0 -83 41 -93 61 -6 11 -27 20 -56 25 -27 4 -53 15 -63 26 -9 11 -40 31
-70 45 -60 29 -121 78 -121 99 0 7 -24 25 -52 39 -29 15 -60 33 -68 40 -8 7
-35 18 -60 25 -25 7 -53 19 -64 28 -17 16 -29 17 -244 22 -6 0 -22 11 -34 25
-12 14 -26 25 -32 25 -5 0 -22 12 -38 26 l-27 27 -95 -11 c-66 -7 -111 -19
-147 -36 -69 -35 -98 -33 -149 9 -48 40 -60 42 -84 16z"/>
<path d="M3256 7513 c-4 -5 -192 -15 -244 -13 -24 0 -54 -5 -65 -13 -12 -8
-83 -29 -157 -47 -146 -35 -193 -54 -231 -95 -29 -31 -90 -65 -118 -65 -11 0
-26 -10 -32 -22 -17 -32 -46 -54 -117 -88 -50 -24 -75 -30 -130 -30 -70 -1
-174 -21 -195 -39 -7 -5 -25 -12 -41 -15 -18 -3 -46 -25 -76 -58 -39 -44 -58
-56 -107 -70 -32 -10 -74 -18 -93 -18 -20 0 -49 -10 -71 -26 -24 -17 -60 -29
-101 -34 -127 -18 -149 -32 -223 -145 -40 -61 -57 -96 -61 -132 -8 -61 -29
-94 -99 -162 -39 -37 -54 -58 -50 -70 20 -52 17 -66 -34 -129 -28 -35 -54 -75
-57 -90 -4 -15 -14 -45 -24 -67 -60 -137 -59 -128 -29 -205 23 -62 21 -111 -8
-142 -20 -23 -100 -78 -112 -78 -20 0 -61 -43 -61 -65 0 -33 -33 -106 -59
-129 -11 -11 -21 -29 -21 -41 0 -12 -10 -35 -21 -50 -19 -24 -21 -35 -16 -99
9 -101 35 -157 91 -196 26 -17 54 -43 63 -58 9 -15 25 -36 35 -47 15 -18 17
-30 9 -90 -7 -58 -6 -73 7 -87 8 -10 21 -18 29 -18 32 0 71 -31 86 -69 9 -22
30 -56 48 -75 27 -31 31 -42 26 -76 -4 -32 0 -46 25 -79 16 -23 40 -44 53 -47
26 -6 46 -32 85 -109 25 -49 26 -50 82 -56 71 -8 126 -40 130 -77 2 -20 9 -28
28 -30 14 -1 51 -12 84 -23 47 -17 64 -19 83 -10 38 17 160 14 167 -4 3 -8 12
-15 21 -15 17 0 19 9 6 29 -11 17 4 56 32 88 11 12 17 28 14 36 -3 8 6 31 19
51 29 42 56 46 106 17 18 -11 65 -28 104 -39 114 -30 284 -157 284 -211 0 -32
66 -64 135 -66 39 -1 80 -10 118 -26 52 -23 63 -24 132 -16 67 8 77 7 108 -12
32 -20 35 -20 88 -4 30 9 72 24 93 34 28 13 44 15 55 8 82 -50 81 -50 118 -37
19 7 41 24 49 39 15 31 98 89 126 89 11 0 30 12 43 26 19 20 30 25 49 20 32
-8 42 9 25 40 -12 23 -10 27 16 50 22 18 36 23 54 19 14 -4 28 -7 31 -7 3 -1
18 2 34 7 19 5 31 4 36 -4 4 -7 24 -14 44 -15 20 -2 40 -6 43 -10 4 -3 18 5
33 19 14 14 37 25 50 24 14 0 40 0 59 -1 27 0 40 6 58 28 22 28 24 28 50 14
22 -12 29 -24 31 -53 2 -22 10 -41 18 -44 8 -3 14 -11 14 -17 0 -7 13 -22 30
-34 33 -25 115 -30 185 -11 89 24 110 23 146 -9 44 -38 91 -62 122 -62 14 0
27 -7 30 -14 7 -17 48 -14 134 10 28 8 67 14 87 14 72 0 114 44 66 70 -51 27
1 70 84 70 20 0 55 10 76 22 33 20 43 21 69 11 21 -7 43 -8 68 -2 47 12 216
31 263 30 19 0 53 -5 75 -10 94 -23 121 -21 156 10 22 20 36 26 43 19 16 -16
44 -12 66 10 12 12 33 20 55 20 36 0 75 30 75 59 0 30 40 81 89 113 59 39 76
66 102 161 11 39 29 81 38 92 10 11 24 38 31 60 18 56 126 165 196 195 57 25
60 31 44 89 -5 20 -12 48 -15 63 -3 15 -23 47 -44 72 -21 25 -41 48 -42 53 -2
4 -21 21 -41 36 -21 15 -38 32 -38 37 0 22 -78 120 -167 207 -67 67 -107 116
-126 154 -15 32 -34 62 -42 69 -8 7 -15 18 -15 25 0 18 -34 45 -90 71 -45 21
-50 26 -51 56 -2 159 -42 271 -142 403 -80 105 -140 175 -152 175 -19 0 -119
76 -133 102 -7 13 -27 33 -45 45 -18 13 -50 39 -72 59 -21 20 -53 41 -71 46
-20 5 -44 25 -65 54 -19 24 -46 61 -61 81 -16 20 -28 43 -28 52 0 10 -7 26
-15 37 -8 10 -15 27 -15 38 0 21 -136 168 -188 204 -18 12 -44 22 -57 22 -13
0 -36 7 -52 14 -15 8 -36 17 -46 20 -10 3 -25 19 -35 36 -12 21 -25 30 -42 30
-14 0 -37 8 -50 18 -14 9 -45 22 -70 29 -56 14 -106 -3 -135 -47 -11 -17 -31
-33 -45 -35 -14 -3 -44 -10 -68 -15 -23 -6 -60 -10 -81 -10 -33 0 -43 5 -62
31 -23 33 -108 79 -146 79 -12 0 -35 12 -50 26 -26 24 -33 26 -93 21 -41 -4
-84 -1 -115 8 -86 23 -291 56 -299 48z"/>
<path d="M10825 5039 c-16 -4 -75 -10 -129 -14 -85 -6 -102 -10 -120 -30 -44
-47 -151 -71 -195 -43 -15 9 -26 9 -48 -1 -15 -8 -59 -20 -98 -27 -79 -16
-110 -35 -136 -82 -9 -19 -43 -59 -76 -91 -115 -113 -195 -230 -211 -308 -6
-28 -18 -44 -52 -68 -55 -39 -79 -73 -120 -173 -18 -42 -41 -88 -52 -102 -67
-87 -78 -105 -78 -126 0 -12 5 -26 11 -30 6 -4 25 -34 41 -68 16 -33 38 -77
49 -96 13 -24 19 -55 19 -97 0 -55 3 -64 26 -82 15 -12 31 -21 35 -21 16 0 78
-75 79 -95 0 -10 8 -39 17 -63 15 -40 19 -43 45 -38 39 8 73 -27 83 -81 11
-68 30 -80 126 -81 107 -1 166 12 190 42 12 16 34 27 62 31 23 4 56 15 74 25
39 23 244 29 310 10 38 -11 46 -10 69 6 32 23 30 22 119 66 58 28 71 39 73 61
3 26 5 27 67 27 53 0 66 -4 78 -20 13 -19 16 -19 57 -5 24 8 49 20 57 26 24
21 75 1 120 -46 27 -28 51 -45 66 -45 13 0 59 -15 101 -34 56 -24 83 -42 96
-64 l19 -30 47 14 c26 8 52 18 58 23 11 8 38 13 152 27 28 3 60 2 70 -4 27
-13 44 -4 44 24 0 13 4 32 9 42 44 87 53 208 21 270 -25 48 -19 67 44 140 25
30 49 66 52 80 13 56 33 121 44 142 20 38 60 219 60 274 0 48 -4 58 -36 92
-20 22 -45 59 -56 84 -28 63 -52 85 -140 137 -68 39 -78 48 -78 72 0 45 -27
61 -106 61 l-69 0 -60 56 c-158 146 -158 146 -263 167 -186 35 -223 39 -268
27 -46 -13 -103 -2 -137 28 -19 17 -112 23 -162 11z"/>
<path d="M7139 3626 c-3 -4 -46 -11 -94 -17 -68 -8 -97 -17 -121 -35 -21 -16
-60 -30 -111 -40 -43 -8 -124 -24 -180 -35 -67 -13 -121 -18 -155 -15 -226 25
-326 39 -394 57 -44 11 -94 25 -113 29 -46 11 -226 -29 -312 -70 -35 -16 -70
-30 -77 -30 -8 0 -50 -16 -93 -35 -44 -19 -85 -35 -90 -35 -6 0 -23 -8 -37
-19 -15 -10 -52 -29 -82 -41 -55 -23 -110 -65 -110 -84 0 -5 -18 -40 -41 -77
-93 -155 -114 -261 -83 -419 8 -41 19 -127 24 -189 7 -90 14 -125 33 -160 13
-26 31 -59 40 -76 8 -16 20 -55 27 -85 17 -82 48 -202 83 -319 25 -80 40 -113
69 -145 109 -121 176 -170 219 -161 24 5 36 1 65 -25 20 -17 47 -36 59 -42 34
-15 126 -192 154 -295 8 -27 31 -63 65 -100 29 -32 66 -78 81 -103 41 -66 102
-135 144 -164 20 -14 75 -40 121 -57 54 -19 96 -42 116 -62 47 -48 90 -77 112
-77 11 0 35 -6 53 -14 26 -11 65 -13 166 -9 130 6 133 6 172 -20 27 -18 43
-38 53 -67 8 -24 24 -47 38 -56 99 -55 319 -138 452 -169 67 -16 82 -17 118
-5 39 13 42 12 85 -19 61 -44 96 -56 200 -70 50 -7 108 -19 130 -27 55 -19 97
-18 187 6 42 11 107 22 145 24 37 3 81 9 97 15 15 6 96 23 180 37 142 24 157
25 262 13 141 -15 263 -8 329 19 28 12 77 26 110 32 69 14 190 46 204 55 6 3
36 10 68 16 72 13 109 32 148 74 31 33 86 55 138 55 34 0 101 59 152 133 19
29 48 70 65 92 16 22 46 74 65 115 20 41 49 101 65 133 17 31 30 66 30 76 0
10 12 36 27 57 25 36 27 45 25 132 -1 82 -5 99 -33 152 -17 33 -64 104 -105
158 -147 196 -163 217 -170 237 -14 37 -94 133 -127 154 -54 33 -317 316 -367
394 -16 26 -47 57 -68 71 -22 14 -107 92 -190 175 -117 117 -164 157 -213 181
-35 18 -78 43 -95 56 -17 12 -64 39 -104 59 -41 19 -81 41 -89 49 -9 8 -50 31
-91 51 -41 21 -100 57 -130 80 -30 23 -69 49 -87 59 -18 9 -44 33 -60 53 -62
84 -107 133 -127 139 -11 3 -48 18 -81 34 -96 46 -156 60 -252 60 -113 0 -216
22 -328 69 -49 22 -108 44 -130 50 -47 13 -227 26 -236 17z"/>
</g>
</svg>
